<svg xmlns="http://www.w3.org/2000/svg" viewBox="0 0 115.18 138.64"><defs><style>.cls-1,.cls-2{fill:#6abd45;}.cls-1,.cls-2,.cls-3{fill-rule:evenodd;}.cls-2{opacity:0.65;}.cls-3{fill:#009444;opacity:0.67;}</style></defs><g id="Layer_2" data-name="Layer 2"><g id="Layer_1-2" data-name="Layer 1"><path class="cls-1" d="M43.21,45.14c-5.43,15-1.85,26.73,9.9,37.11q15.7,13.89,11.55,30.34c6.17-17.6.92-25.51-11-37.42Q39.95,61.52,43.21,45.14Z"/><path class="cls-2" d="M36.92,90.18q24.46,23.05,19.15,48.46,14.28-29.14-20.8-64.92c-7.83-8-11.81-18.26-7.76-29.16a18.27,18.27,0,0,1,35,8.9,23.75,23.75,0,0,0-38-25.4C12.39,38.43,10.23,54.22,17.2,68,21.52,76.54,30,83.69,36.92,90.18Z"/><path class="cls-1" d="M45.12,9.4a9.4,9.4,0,1,1,9.4,9.4A9.4,9.4,0,0,1,45.12,9.4Z"/><path class="cls-1" d="M28.42,13a6.15,6.15,0,1,1,6.15,6.15A6.15,6.15,0,0,1,28.42,13Z"/><path class="cls-1" d="M13.78,19.52a5.81,5.81,0,1,1,5.81,5.81A5.81,5.81,0,0,1,13.78,19.52Z"/><path class="cls-1" d="M3.77,30.34a5,5,0,1,1,5,5A5,5,0,0,1,3.77,30.34Z"/><path class="cls-1" d="M0,44.54a4.58,4.58,0,1,1,4.58,4.58A4.58,4.58,0,0,1,0,44.54Z"/><path class="cls-1" d="M81.42,59.9c4.24,11.7,1.45,20.88-7.73,29q-12.27,10.85-9,23.7C59.85,98.84,64,92.67,73.28,83.35Q84,72.7,81.42,59.9Z"/><path class="cls-3" d="M86.34,95.08q-19.11,18-15,37.86Q60.22,110.17,87.62,82.23C93.74,76,96.85,68,93.69,59.45a14.27,14.27,0,0,0-27.36,7A18.55,18.55,0,0,1,96,46.56c9.46,8.1,11.15,20.43,5.7,31.19C98.37,84.43,91.71,90,86.34,95.08Z"/><path class="cls-1" d="M79.93,32a7.34,7.34,0,1,0-7.34,7.34A7.33,7.33,0,0,0,79.93,32Z"/><path class="cls-1" d="M93,34.8a4.81,4.81,0,1,0-4.81,4.8A4.81,4.81,0,0,0,93,34.8Z"/><path class="cls-1" d="M104.41,39.88a4.54,4.54,0,1,0-4.54,4.54A4.54,4.54,0,0,0,104.41,39.88Z"/><path class="cls-1" d="M112.24,48.33a3.92,3.92,0,1,0-3.91,3.91A3.92,3.92,0,0,0,112.24,48.33Z"/><path class="cls-1" d="M115.18,59.43A3.58,3.58,0,1,0,111.6,63,3.57,3.57,0,0,0,115.18,59.43Z"/></g></g></svg>